<svg width="201" height="25" fill="none" xmlns="http://www.w3.org/2000/svg"><path d="M35.797 19.655 47.3 24.549l1.683-4.17-11.494-4.835a13.869 13.869 0 0 1-1.692 4.16M0 20.33l1.73 4.17 11.504-4.894a12.811 12.811 0 0 1-1.73-4.16L0 20.331ZM35.797 5.296a13.928 13.928 0 0 1 1.692 4.17L48.983 4.67 47.3.5 35.797 5.296ZM0 4.67l11.504 4.796a12.81 12.81 0 0 1 1.73-4.17L1.73.5 0 4.67ZM24.515 3.436a8.816 8.816 0 0 0-4.94 1.518 8.982 8.982 0 0 0-3.276 4.041 9.11 9.11 0 0 0-.506 5.203 9.04 9.04 0 0 0 2.434 4.61 8.86 8.86 0 0 0 4.553 2.465 8.792 8.792 0 0 0 5.139-.512 8.919 8.919 0 0 0 3.991-3.317 9.085 9.085 0 0 0 1.5-5.003 8.996 8.996 0 0 0-.649-3.463 8.906 8.906 0 0 0-1.925-2.936 8.78 8.78 0 0 0-2.9-1.95 8.692 8.692 0 0 0-3.42-.656Zm0 13.576a4.483 4.483 0 0 1-2.535-.734 4.567 4.567 0 0 1-1.7-2.04 4.633 4.633 0 0 1-.288-2.655 4.6 4.6 0 0 1 1.223-2.365 4.508 4.508 0 0 1 2.318-1.274 4.472 4.472 0 0 1 2.625.251 4.536 4.536 0 0 1 2.04 1.69c.5.757.766 1.647.764 2.556a4.533 4.533 0 0 1-.313 1.747 4.489 4.489 0 0 1-.96 1.487 4.426 4.426 0 0 1-1.453.994 4.38 4.38 0 0 1-1.72.343Z" fill="#DA291C"/><path d="M88.627 3.74H81.86V21.22h4.447v-5.804h2.32a5.679 5.679 0 0 0 2.283-.403 5.736 5.736 0 0 0 1.94-1.284 5.82 5.82 0 0 0 1.28-1.955 5.877 5.877 0 0 0 .413-2.31 5.67 5.67 0 0 0-.42-2.274 5.611 5.611 0 0 0-1.29-1.91 5.528 5.528 0 0 0-1.943-1.22 5.476 5.476 0 0 0-2.263-.321Zm-.329 7.83h-1.991V7.655h1.991a1.806 1.806 0 0 1 1.434.519 1.854 1.854 0 0 1 .548 1.439 1.98 1.98 0 0 1-.562 1.44 1.93 1.93 0 0 1-1.42.576M68.964 3.436a8.816 8.816 0 0 0-4.94 1.518 8.982 8.982 0 0 0-3.276 4.041 9.11 9.11 0 0 0-.507 5.203 9.04 9.04 0 0 0 2.434 4.61 8.86 8.86 0 0 0 4.554 2.465 8.792 8.792 0 0 0 5.139-.512 8.919 8.919 0 0 0 3.99-3.317 9.085 9.085 0 0 0 1.5-5.003 8.994 8.994 0 0 0-.648-3.463 8.907 8.907 0 0 0-1.925-2.936 8.78 8.78 0 0 0-2.9-1.95 8.692 8.692 0 0 0-3.42-.656Zm0 13.576a4.483 4.483 0 0 1-2.535-.734 4.567 4.567 0 0 1-1.7-2.04 4.634 4.634 0 0 1-.288-2.655 4.6 4.6 0 0 1 1.223-2.365 4.508 4.508 0 0 1 2.317-1.274 4.472 4.472 0 0 1 2.626.251 4.536 4.536 0 0 1 2.04 1.69c.5.757.766 1.647.764 2.556a4.533 4.533 0 0 1-.314 1.747 4.487 4.487 0 0 1-.958 1.487 4.424 4.424 0 0 1-1.454.994 4.38 4.38 0 0 1-1.72.343ZM102.335 13.596l.067-9.856h-4.34V21.22h3.712l6.1-9.563-.068 9.563h4.302V3.74h-3.674l-6.099 9.856ZM116.951 3.74V21.22h12.016v-3.866h-7.859v-2.898h7.675v-4.062h-7.675V7.607h7.859V3.74h-12.016ZM144.144 10.17h-5.945V3.74h-4.418V21.22h4.418v-6.656h5.945v6.656h4.447V3.74h-4.447v6.43ZM152.052 8.086h4.302V21.22h4.659V8.086h4.302V3.74h-13.263v4.346ZM172.845 13.596l.078-9.856h-4.341V21.22h3.712l6.1-9.563-.067 9.563h4.292V3.74h-3.674l-6.1 9.856ZM194.094 3.74h-6.767v17.48h4.446v-5.803h2.321a5.674 5.674 0 0 0 2.282-.403 5.731 5.731 0 0 0 1.94-1.284 5.815 5.815 0 0 0 1.281-1.956 5.896 5.896 0 0 0 .413-2.308 5.688 5.688 0 0 0-.423-2.273 5.613 5.613 0 0 0-1.291-1.909 5.531 5.531 0 0 0-1.941-1.22 5.48 5.48 0 0 0-2.261-.324Zm-.339 7.83h-1.982V7.655h1.982a1.804 1.804 0 0 1 1.441.515 1.88 1.88 0 0 1 .551 1.443 1.967 1.967 0 0 1-1.22 1.879 1.917 1.917 0 0 1-.772.137" fill="#0033A0"/></svg>