<svg width="150" height="73" viewBox="0 0 150 73" fill="none" xmlns="http://www.w3.org/2000/svg">
<path d="M109.621 57.9633L144.849 72.7724L150 60.155L114.802 45.5236C113.776 49.9752 112.026 54.2279 109.621 58.1113" fill="#DA291C"/>
<path d="M0 60.006L5.29899 72.6235L40.5269 57.8143C38.0249 53.9679 36.2303 49.7049 35.2279 45.2266L0 60.006Z" fill="#DA291C"/>
<path d="M109.621 14.5129C112.026 18.407 113.776 22.6694 114.802 27.1303L150 12.6174L144.849 0L109.621 14.5129Z" fill="#DA291C"/>
<path d="M0 12.6174L35.2279 27.1303C36.227 22.6417 38.0217 18.3684 40.5269 14.5129L5.29899 0L0 12.6174Z" fill="#DA291C"/>
<path d="M75.0741 8.88496C69.6875 8.88496 64.4219 10.4831 59.9431 13.4772C55.4644 16.4713 51.9736 20.727 49.9122 25.7061C47.8508 30.6851 47.3115 36.164 48.3624 41.4497C49.4133 46.7355 52.0071 51.5908 55.816 55.4016C59.6249 59.2124 64.4777 61.8076 69.7608 62.859C75.0439 63.9104 80.5199 63.3708 85.4965 61.3084C90.473 59.246 94.7266 55.7534 97.7192 51.2724C100.712 46.7914 102.309 41.5231 102.309 36.1338C102.353 32.5433 101.678 28.9803 100.325 25.6546C98.9718 22.3289 96.9673 19.3076 94.4295 16.7685C91.8918 14.2295 88.872 12.224 85.548 10.8701C82.2239 9.5162 78.6628 8.84124 75.0741 8.88496ZM75.0741 49.9655C72.3231 50.0125 69.6204 49.239 67.3105 47.7435C65.0005 46.2479 63.188 44.0981 62.1038 41.5681C61.0197 39.038 60.713 36.2423 61.223 33.5372C61.7329 30.8321 63.0363 28.3402 64.9671 26.379C66.8979 24.4179 69.3686 23.0763 72.0643 22.5253C74.76 21.9744 77.5586 22.2389 80.1035 23.2853C82.6484 24.3316 84.8242 26.1124 86.3537 28.4007C87.8832 30.6889 88.6971 33.381 88.6916 36.1338C88.7271 37.9425 88.4007 39.74 87.7316 41.4206C87.0624 43.1012 86.0641 44.631 84.7952 45.9198C83.5263 47.2086 82.0126 48.2305 80.3432 48.9253C78.6737 49.62 76.8822 49.9737 75.0741 49.9655Z" fill="#DA291C"/>
</svg>
