<svg width="99" height="76" viewBox="0 0 99 76" fill="none" xmlns="http://www.w3.org/2000/svg"><path d="M46.9773 0.363525V22.6846C46.9773 29.0226 45.7372 35.4985 43.2571 42.1121C40.8459 48.6568 37.608 54.8571 33.5433 60.713C29.4787 66.4999 25.0352 71.4257 20.2127 75.4903L0.785156 64.0198C4.22976 58.5773 7.26101 52.5492 9.87891 45.9356C12.5657 39.322 13.9091 31.6405 13.9091 22.8912V0.363525H46.9773ZM98.9563 0.363525V22.6846C98.9563 29.0226 97.7163 35.4985 95.2362 42.1121C92.8249 48.6568 89.587 54.8571 85.5224 60.713C81.4577 66.4999 76.9798 71.4257 72.0884 75.4903L52.6609 64.0198C56.1744 58.5773 59.2401 52.5492 61.858 45.9356C64.5447 39.322 65.8881 31.6405 65.8881 22.8912V0.363525H98.9563Z" fill="#EBECEE"/></svg>
