<svg width="130" height="18" fill="none" xmlns="http://www.w3.org/2000/svg"><path d="M2.69.02C3.281-.01 3.877.006 4.47.01c.331-.026.475.318.597.556 1.858 3.795 3.754 7.572 5.595 11.373a1.26 1.26 0 0 0 .211-.257c1.977-3.785 3.97-7.562 5.95-11.345.088-.157.231-.338.436-.324.55-.003 1.103-.04 1.65.024.126.123.153.3.183.464.75 5.476 1.497 10.953 2.246 16.428.052.24.022.627-.31.619-1.088.018-2.177.005-3.266.006-.256.041-.527-.146-.54-.407-.286-3.558-.585-7.127-1.264-10.636-1.822 3.395-3.579 6.826-5.389 10.227-.25.458-.863.47-1.31.349-.357-.112-.491-.482-.637-.783-1.499-3.048-3.005-6.093-4.507-9.141a7.712 7.712 0 0 0-.429-.813c-.717 3.547-1.087 7.153-1.4 10.755-.012.211-.16.433-.395.438-.63.037-1.262-.002-1.891.015C.799 11.911 1.642 6.27 2.442.623c.037-.213.05-.466.247-.604Zm59.359.995c.122-.4.61-.294.935-.314.392-.02.906.02 1.058.448.949 2.306 1.917 4.605 2.849 6.917-1.167.286-2.352.487-3.52.764a112.174 112.174 0 0 1-1.213-3.275c-.593 1.321-.922 2.755-1.497 4.08-.868.39-1.725.824-2.462 1.425-.212.175-.417.355-.65.499 1.519-3.507 2.991-7.034 4.5-10.544ZM91.798.793c2.065-.207 4.232-.046 6.127.84 2.218 1.042 3.98 3.054 4.54 5.425.418 1.804.363 3.74-.276 5.488-.845 2.261-2.794 4.065-5.09 4.87-1.972.666-4.125.721-6.167.373-2.357-.412-4.514-1.82-5.785-3.817-1.192-1.871-1.472-4.195-1.107-6.346a7.926 7.926 0 0 1 2.723-4.734C88.148 1.67 89.958.979 91.798.793Zm.444 1.484c-1.21.206-2.28.952-2.953 1.952-1.093 1.517-1.357 3.434-1.326 5.249-.023 1.888.357 3.882 1.61 5.374 1.735 2.21 5.575 2.255 7.382.113 1.1-1.248 1.59-2.902 1.677-4.526.056-1.557.06-3.16-.48-4.644-.4-1.08-1.06-2.099-2.008-2.788-1.114-.79-2.576-.969-3.902-.73Zm-67.795-.609c-.031-.221.107-.5.361-.5.96-.024 1.922-.01 2.882-.007.279-.03.452.266.435.51.007 3.509.002 7.018.003 10.527a3.07 3.07 0 0 0 .446-.413c3.024-3.293 5.78-6.813 8.512-10.342.465-.478 1.213-.233 1.807-.28.238-.046.328.18.309.372.005 5.13-.003 10.26.004 15.389.032.273-.103.647-.44.625-.923.014-1.847.007-2.77.004-.232.033-.474-.147-.467-.384-.024-3.558.014-7.118-.02-10.677-3.032 3.101-5.613 6.591-8.32 9.963-.343.374-.562.946-1.1 1.079a9.245 9.245 0 0 1-1.53-.004c-.156-.114-.094-.332-.114-.493.006-5.123 0-10.245.002-15.369Zm18.894.004c-.036-.271.18-.569.48-.512 1.654-.007 3.31-.002 4.965-.002 1.337.035 2.715.162 3.932.752 1.637.807 2.725 2.573 2.712 4.372.026 1.22-.263 2.493-1.053 3.46-.782.976-1.97 1.548-3.173 1.847-1.364.333-2.785.427-4.186.365.005 1.694.005 3.39.001 5.083.037.26-.157.55-.447.515-.959.002-1.92.018-2.878-.008-.242-.013-.376-.283-.353-.497-.002-5.126-.002-10.25 0-15.375Zm3.68.961c0 2.669-.004 5.337.004 8.006 1.19.061 2.479-.143 3.391-.955.968-.844 1.28-2.179 1.268-3.405.017-1.013-.315-2.097-1.142-2.753-.973-.79-2.3-.946-3.52-.893Zm23.77-1.477c4.041.015 8.083-.025 12.12.019.03.032.09.096.118.128.025.58.05 1.169-.014 1.746-.137.255-.464.16-.695.135-1.188-.218-2.397-.282-3.604-.299-.004 4.72.003 9.44-.003 14.16.03.265-.192.564-.486.508-.916.004-1.832.008-2.748-.001-.284.03-.478-.25-.444-.506-.005-4.721.003-9.442-.004-14.163a23.566 23.566 0 0 0-3.843.333c-.252.074-.53-.108-.503-.377.005-.557-.123-1.155.106-1.683Zm34.896.503c-.042-.24.137-.512.405-.497 1.658-.014 3.315-.001 4.974-.005 1.396.037 2.853.156 4.106.82 1.62.84 2.632 2.64 2.601 4.426-.005 1.307-.376 2.68-1.326 3.634-1.087 1.12-2.669 1.588-4.185 1.798-.957.107-1.926.189-2.888.113-.023 1.701.006 3.404-.013 5.105.025.278-.22.546-.51.5-.919.004-1.839.009-2.757-.003-.269.014-.454-.257-.407-.5-.001-5.13-.003-10.261 0-15.39Zm3.678.978c.003 2.666 0 5.333.002 8 1.145.057 2.376-.126 3.284-.866.895-.718 1.278-1.869 1.351-2.97.105-1.127-.126-2.39-1.013-3.182-.972-.867-2.363-1.042-3.624-.982Zm11.273-.969c-.032-.253.161-.54.445-.507 2.87-.005 5.742-.01 8.613.002.269-.014.258.318.274.5.004.456.1.942-.074 1.376-.14.276-.492.161-.733.144-1.601-.257-3.227-.278-4.845-.293 0 4.72.002 9.44-.002 14.16.034.27-.191.554-.483.503-.917.004-1.834.009-2.75-.003-.274.023-.473-.253-.446-.503 0-5.126-.003-10.253.001-15.379ZM68.526 12.232l.058-.04c.704 1.576 1.319 3.193 2 4.782.105.19.165.594-.166.573-1.088.024-2.178 0-3.267.01-.307.033-.624-.137-.715-.436-.356-.96-.733-1.914-1.056-2.884.602-.276 1.253-.481 1.8-.872.508-.306.91-.742 1.346-1.133Z" fill="#676869"/><path d="M68.19 8.037C68.86 7.81 69.448 7.421 70 7c-.324 1.648-1.016 3.29-2.236 4.517-.966.965-2.293 1.518-3.646 1.76-1.45.285-2.974.186-4.373.698.32-.435.67-.863 1.127-1.172 1.129-.814 2.529-1.117 3.843-1.534.895-.278 1.813-.634 2.46-1.317-1.535.755-3.306.764-4.91 1.322-1.138.372-2.196 1.065-2.819 2.072-.637 1.025-.913 2.208-1.388 3.302a.588.588 0 0 1-.545.346c-.839.01-1.676.006-2.513-.004.733-1.597 1.269-3.325 2.467-4.676 1.143-1.35 2.768-2.246 4.48-2.758 2.044-.647 4.225-.79 6.243-1.519Z" fill="#676869"/></svg>