<svg width="123" height="31" fill="none" xmlns="http://www.w3.org/2000/svg"><path fill-rule="evenodd" clip-rule="evenodd" d="m98.084 22.157.737-14.591-6.467-3.283L92.52 1H121l-.156 3.1-7.559 3.466-.747 14.774 7.025 3.648-.204 4.012H90l.184-3.648 7.9-4.195ZM67.759 22.579h-4.264l.259-5.372h4.27c2.264-.092 3.272 1.957 2.698 3.277 0 0-.217 2.004-2.963 2.095Zm.524-10.428H64.02l.26-5.046h4.485c1.697-.046 2.916 1.222 2.546 2.835 0 0-.109 2.212-3.027 2.211ZM80.498 1.012S85.937.42 86.99 7.413c0 0 .434 4.822-4.4 7.649 5.27 1.543 4.312 8.008 4.312 8.008-1.592 7.346-9.008 6.926-9.008 6.926H42l.22-3.643 6.69-4.182.638-14.767-6.272-3.089.22-3.279 37.002-.024ZM21.07 4.97h.835c1.921 0 3.397 1.633 3.296 3.647l-.66 13.204c-.1 2.015-1.74 3.648-3.66 3.648h-.836c-1.921 0-3.397-1.633-3.297-3.648l.66-13.204c.1-2.014 1.74-3.647 3.661-3.647ZM14.003 1h15.44c6.726 0 11.892 5.716 11.539 12.767l-.173 3.466C40.457 24.285 34.72 30 27.995 30h-15.44C5.831 30 .665 24.285 1.017 17.233l.173-3.466C1.543 6.717 7.28 1 14.004 1Z" fill="#fff" stroke="#676869" stroke-width="2" stroke-miterlimit="2.613"/><path d="M115 19.5c0-.69.28-1.316.732-1.768A2.493 2.493 0 0 1 117.5 17c.69 0 1.315.28 1.767.732A2.49 2.49 0 0 1 120 19.5c0 .69-.28 1.316-.733 1.768a2.494 2.494 0 0 1-3.534 0l-.001-.002A2.494 2.494 0 0 1 115 19.5Zm2.502.297h-.555v.949h-.464v-2.511h1.291c.369.01.638.2.768.444.057.105.087.22.089.335v.001a.698.698 0 0 1-.089.344.83.83 0 0 1-.477.37l.659 1.061h-.607l-.615-.993Zm-.555-.463c.275 0 .511-.018.821-.018h.041l.002.002c.175-.032.281-.102.328-.186a.216.216 0 0 0 .028-.113.268.268 0 0 0-.031-.123c-.059-.108-.189-.194-.374-.198h-.815v.636Zm-.872-1.26c-.364.365-.589.87-.589 1.426 0 .557.224 1.061.588 1.425h.001c.364.365.868.59 1.425.59a2.01 2.01 0 0 0 2.015-2.014 2.01 2.01 0 0 0-.59-1.426 2.012 2.012 0 0 0-2.85 0Z" fill="#676869"/></svg>