<svg width="110" height="24" fill="none" xmlns="http://www.w3.org/2000/svg"><path fill-rule="evenodd" clip-rule="evenodd" d="M11.904.02A11.971 11.971 0 0 0 .891 7.465a11.989 11.989 0 0 0 2.643 13.035 11.974 11.974 0 0 0 13.043 2.564A11.977 11.977 0 0 0 23.952 12a12.026 12.026 0 0 0-3.546-8.485A12.013 12.013 0 0 0 11.904.019ZM93.47 20.702a2.739 2.739 0 0 1-2.736 2.739 2.736 2.736 0 0 1-2.737-2.739c0-6.302.022-12.735-.064-19.035-.023-1.649.834-1.33 1.791-.565l14.73 11.8-.093-9.633a2.725 2.725 0 0 1 2.713-2.75c1.506-.012 2.865 1.2 2.877 2.715l.05 18.954c0 1.871-1.089 1.33-1.855.715L93.47 11.16v9.543ZM67.157 0c9.255 0 16.755 5.374 16.755 12s-7.5 12-16.755 12c-9.255 0-16.883-5.372-16.883-12s7.63-12 16.883-12Zm0 5.672c6.17 0 11.048 2.833 11.048 6.328s-4.873 6.328-11.048 6.328-11.17-2.833-11.17-6.328 5.003-6.328 11.17-6.328Zm-36.949.297a2.738 2.738 0 0 1-2.666-2.74A2.74 2.74 0 0 1 30.208.492H47.44c1.053 0 1.721.535.76 1.805L36.325 17.975h9.592a2.737 2.737 0 0 1 2.811 2.739 2.742 2.742 0 0 1-2.811 2.74l-18.868.063c-1.202 0-1.227-.816-.581-1.662L38.443 6.043l-8.231-.074h-.004Zm-18.304-.32a6.347 6.347 0 0 0-5.84 3.948 6.356 6.356 0 0 0 4.653 8.639 6.347 6.347 0 0 0 6.507-2.71A6.356 6.356 0 0 0 18.29 12a6.375 6.375 0 0 0-3.948-5.874 6.363 6.363 0 0 0-2.438-.477Z" fill="#676869"/></svg>