<svg width="110" height="28" fill="none" xmlns="http://www.w3.org/2000/svg"><path fill-rule="evenodd" clip-rule="evenodd" d="M75.817 12.833c.012.644.55 1.161 1.198 1.161.648 0 1.187-.517 1.187-1.16v-2.66h3.911v2.66c0 .643.551 1.16 1.199 1.16s1.187-.517 1.187-1.16V5.175c0-.644-.551-1.16-1.2-1.16-.647 0-1.186.516-1.186 1.16v2.659H78.19V5.176c0-.644-.539-1.16-1.187-1.16-.647 0-1.186.516-1.186 1.16v7.657ZM47.36 6.451v6.382c0 .656.55 1.161 1.205 1.161.666 0 1.204-.511 1.204-1.16V6.45h1.805c.66 0 1.186-.517 1.186-1.173 0-.631-.532-1.16-1.186-1.16h-6.018c-.66 0-1.187.529-1.187 1.16 0 .656.533 1.173 1.187 1.173h1.804Zm-8.392 2.887-2.79-4.74c-.322-.535-.994-.727-1.575-.469-.587.337-.775 1.047-.436 1.612l3.33 5.588c-.405.265-.841.361-1.314.397-.648.06-1.083.518-1.083 1.125 0 .722.587 1.125 1.186 1.125 1.35 0 2.531-.68 3.385-1.63.775-.866 1.362-1.961 1.913-2.984l1.962-3.657c.296-.565.114-1.305-.49-1.594-.57-.27-1.266-.03-1.569.53l-2.519 4.697Zm47.43-.324c0 2.863 2.138 4.98 5.038 4.98 2.9 0 5.037-2.13 5.037-4.98 0-2.864-2.155-4.993-5.037-4.993-2.9 0-5.037 2.13-5.037 4.993Zm7.66 0c0 1.527-1.066 2.676-2.628 2.676-1.568 0-2.628-1.155-2.628-2.676 0-1.528 1.066-2.69 2.628-2.69 1.568 0 2.628 1.162 2.628 2.69Zm10.613-2.557c.66 0 1.181-.511 1.181-1.149 0-.625-.521-1.155-1.181-1.155h-1.798c-2.936 0-5.025 2.082-5.025 4.879 0 2.79 2.088 4.878 5.025 4.878h1.798c.66 0 1.181-.511 1.181-1.155 0-.626-.521-1.155-1.181-1.155h-1.865c-1.568 0-2.597-1.095-2.597-2.574 0-1.48 1.035-2.575 2.597-2.575h1.865v.006Zm-43.773 7.194c.441.451 1.186.47 1.64.018.442-.433.49-1.179.049-1.63L59.56 8.935l2.907-2.983c.436-.451.393-1.191-.049-1.612-.442-.451-1.187-.433-1.622.018l-3.003 3.074c-.26.27-.442.306-.636.306-.297 0-.551-.204-.551-.51V5.175c0-.644-.539-1.16-1.187-1.16s-1.186.516-1.186 1.16v7.663c0 .644.538 1.161 1.186 1.161.648 0 1.187-.517 1.187-1.16v-2.178c0-.295.254-.5.55-.5.195 0 .376.036.637.307l3.105 3.182Zm2.954-4.637c0 2.863 2.137 4.98 5.037 4.98s5.038-2.13 5.038-4.98c0-2.864-2.156-4.993-5.038-4.993-2.9 0-5.037 2.13-5.037 4.993Zm7.665 0c0 1.527-1.066 2.676-2.628 2.676-1.568 0-2.627-1.155-2.627-2.676 0-1.528 1.065-2.69 2.627-2.69 1.562 0 2.628 1.162 2.628 2.69Zm37.283-.939c.636 0 1.199-.517 1.199-1.197 0-.655-.563-1.179-1.199-1.179-.654 0-1.205.53-1.205 1.18a1.193 1.193 0 0 0 1.205 1.196Zm0 4.253c.636 0 1.199-.535 1.199-1.197 0-.656-.563-1.173-1.199-1.173-.654 0-1.205.517-1.205 1.173-.006.655.545 1.197 1.205 1.197Z" fill="#676869"/><path d="M36 19c1.29 0 2 .896 2 2s-.703 2-2 2c-1.29 0-2-.896-2-2 .007-1.104.71-2 2-2Zm0 3.59c.94 0 1.514-.618 1.514-1.59 0-.972-.575-1.59-1.514-1.59-.94 0-1.514.618-1.514 1.59 0 .972.575 1.59 1.514 1.59ZM41.792 20c.143 0 .208.125.208.263v3.474c0 .138-.065.263-.208.263-.142 0-.208-.125-.208-.263v-1.59h-2.168v1.59c0 .138-.066.263-.208.263-.143 0-.208-.125-.208-.263v-3.474c0-.138.065-.263.208-.263.142 0 .208.125.208.263v1.458h2.168v-1.458c0-.145.066-.263.208-.263Z" fill="#676869"/><path d="M42.645 23.142c.193-.586.275-1.75.308-2.94 0-.124.077-.202.187-.202h1.656c.138 0 .204.11.204.247v3.454c0 .136-.06.26-.193.26-.132 0-.192-.124-.192-.26v-3.285H43.31c-.039.904-.094 2.231-.358 2.96-.165.455-.402.624-.677.624-.137 0-.291-.065-.275-.26.022-.189.121-.176.248-.176.181 0 .313-.182.396-.422ZM47.348 19.58c-.059-.151.012-.233.124-.296a2.613 2.613 0 0 1 1.17-.284c.962 0 1.358.524 1.358 1.388v2.284c0 .132-.065.252-.207.252-.141 0-.206-.12-.206-.252v-.587c-.178.442-.609.915-1.4.915-.703 0-1.187-.385-1.187-1.142 0-1.01.856-1.293 1.63-1.293.413 0 .697.037.962.075v-.22c0-.619-.295-1.01-.986-1.01-.36 0-.626.095-.927.22-.124.051-.277.083-.33-.05Zm2.239 1.603v-.151c-.302-.045-.514-.076-.904-.076-.726 0-1.264.233-1.264.883 0 .448.278.75.815.75.922 0 1.353-.807 1.353-1.406ZM51.414 22.894a.26.26 0 0 1-.21.1c-.14 0-.204-.111-.204-.235v-3.104c0-.123.064-.235.204-.235.14 0 .205.112.205.235v2.676l2.182-2.805c.059-.064.117-.1.205-.1.14 0 .204.112.204.235v3.104c0 .123-.064.235-.204.235-.14 0-.205-.111-.205-.235v-2.652l-2.177 2.781Zm.123-4.589c-.04-.111-.04-.228.058-.281.117-.065.216.011.275.117.128.235.332.41.653.41s.52-.175.654-.41c.058-.1.158-.176.274-.117.1.053.1.176.059.281-.1.259-.426.599-.987.599-.554 0-.881-.34-.986-.599ZM57.792 20c.143 0 .208.125.208.263v3.474c0 .138-.065.263-.208.263-.142 0-.208-.125-.208-.263v-1.59h-2.168v1.59c0 .138-.066.263-.208.263-.143 0-.208-.125-.208-.263v-3.474c0-.138.065-.263.208-.263.142 0 .208.125.208.263v1.458h2.168v-1.458c.006-.145.071-.263.208-.263ZM59 21.204c0-.121.071-.204.173-.204h1.654c.102 0 .173.09.173.204 0 .127-.071.203-.173.203h-1.654c-.102 0-.173-.076-.173-.203ZM63.377 23.737c0 .138-.059.263-.188.263-.13 0-.189-.125-.189-.263v-3.474c0-.138.06-.263.189-.263h1.628c.108 0 .183.092.183.21 0 .131-.076.21-.183.21h-1.44v3.317ZM66.414 23.882a.251.251 0 0 1-.21.111c-.14 0-.204-.124-.204-.262v-3.469c0-.137.064-.262.204-.262.14 0 .205.125.205.262v2.99l2.182-3.134c.059-.072.117-.111.205-.111.14 0 .204.124.204.262v3.469c0 .137-.064.262-.204.262-.14 0-.205-.125-.205-.262v-2.964l-2.177 3.108ZM70.43 20.42v3.317c0 .138-.067.263-.215.263-.147 0-.215-.125-.215-.263v-3.474c0-.138.074-.263.209-.263h2.57c.147 0 .221.125.221.263v3.474c0 .138-.068.263-.215.263-.148 0-.215-.125-.215-.263V20.42h-2.14ZM76.544 22.363c.127-.07.231-.07.289.038.057.107.005.227-.087.296-.294.215-.698.303-1.09.303-1.12 0-1.656-.75-1.656-1.975 0-1.154.594-2.025 1.633-2.025.946 0 1.367.738 1.367 1.489 0 .12-.006.233-.023.334-.029.234-.121.385-.38.385h-2.193c.058.896.502 1.382 1.246 1.382a1.78 1.78 0 0 0 .894-.227Zm-2.134-1.54h2.204c.011-.1.011-.201.011-.296-.011-.644-.329-1.11-1.015-1.11-.698 0-1.143.498-1.2 1.406ZM81 21.055c0 1.242-.488 2.317-1.637 2.317-.37 0-.707-.082-.97-.269v1.621c0 .145-.062.276-.197.276-.134 0-.196-.131-.196-.276V19.36c0-.145.062-.276.196-.276.135 0 .197.13.197.276v.696c.224-.696.661-1.055 1.267-1.055.903 0 1.34.855 1.34 2.055Zm-2.608.731v.842c.298.213.606.303.976.303.925 0 1.228-.876 1.228-1.869 0-.931-.291-1.614-.992-1.614-1.015 0-1.212 1.276-1.212 2.338ZM83.226 20c.136 0 .211.066.3.19l1.447 1.967 1.488-1.947c.095-.125.177-.203.32-.203.164 0 .219.13.219.262v3.469c0 .137-.075.262-.239.262-.164 0-.239-.125-.239-.262v-2.951l-1.351 1.784c-.137.19-.348.163-.464 0l-1.27-1.719v2.886c0 .137-.061.262-.218.262-.164 0-.218-.125-.218-.262v-3.47c-.007-.157.06-.268.225-.268ZM87.348 19.58c-.059-.151.012-.233.124-.296a2.613 2.613 0 0 1 1.17-.284c.962 0 1.358.524 1.358 1.388v2.284c0 .132-.065.252-.207.252-.141 0-.206-.12-.206-.252v-.587c-.178.442-.609.915-1.4.915-.703 0-1.187-.385-1.187-1.142 0-1.01.856-1.293 1.63-1.293.413 0 .697.037.963.075v-.22c0-.619-.296-1.01-.987-1.01-.36 0-.626.095-.927.22-.124.051-.277.083-.33-.05Zm2.239 1.603v-.151c-.302-.045-.514-.076-.904-.076-.726 0-1.264.233-1.264.883 0 .448.278.75.815.75.922 0 1.353-.807 1.353-1.406ZM94 21.055c0 1.242-.488 2.317-1.637 2.317-.37 0-.707-.082-.97-.269v1.621c0 .145-.062.276-.197.276-.134 0-.196-.131-.196-.276V19.36c0-.145.062-.276.196-.276.135 0 .197.13.197.276v.696c.224-.696.661-1.055 1.267-1.055.903 0 1.34.855 1.34 2.055Zm-2.608.731v.842c.298.213.606.303.976.303.925 0 1.228-.876 1.228-1.869 0-.931-.291-1.614-.992-1.614-1.015 0-1.212 1.276-1.212 2.338ZM96.243 20c.168 0 .244.125.244.263v1.586l1.879-1.744c.118-.112.257-.145.368-.04.084.08.077.224-.041.336l-1.747 1.553 1.948 1.625c.112.099.146.243.049.349-.104.125-.278.065-.397-.033l-2.059-1.75v1.592c0 .138-.076.263-.243.263-.168 0-.244-.125-.244-.263v-3.48c0-.139.076-.257.243-.257ZM101.544 22.363c.127-.07.231-.07.289.038.057.107.005.227-.087.296-.294.215-.698.303-1.09.303-1.12 0-1.656-.75-1.656-1.975 0-1.154.594-2.025 1.633-2.025.946 0 1.367.738 1.367 1.489 0 .12-.006.233-.023.334-.029.234-.121.385-.381.385h-2.192c.058.896.502 1.382 1.246 1.382.352.006.629-.088.894-.227Zm-2.134-1.54h2.203c.012-.1.012-.201.012-.296-.012-.644-.329-1.11-1.015-1.11-.698 0-1.143.498-1.2 1.406ZM104.699 23.737c0 .138-.062.263-.196.263-.135 0-.196-.125-.196-.263V20.42h-1.116c-.112 0-.191-.079-.191-.21 0-.125.079-.21.191-.21h2.618c.112 0 .191.092.191.21 0 .131-.079.21-.191.21h-1.116v3.317h.006Z" fill="#676869"/><path fill-rule="evenodd" clip-rule="evenodd" d="M25.997 3.03C25.997 1.355 24.62 0 22.92 0H3.079C1.376 0 0 1.355 0 3.03v12.175C0 22.27 5.82 28 12.999 28c7.178 0 12.998-5.729 12.998-12.795 0-4.844.006-7.325 0-12.175Z" fill="#676869"/><path fill-rule="evenodd" clip-rule="evenodd" d="M12.523 17.995c0-.553-.568-.995-1.274-.995-.694 0-1.249.442-1.249.995 0 .553.555 1.005 1.249 1.005.706 0 1.274-.452 1.274-1.005Zm4.477 0c0-.553-.568-.995-1.261-.995-.694 0-1.262.442-1.262.995 0 .553.568 1.005 1.262 1.005.693 0 1.261-.452 1.261-1.005Z" fill="#676869"/></svg>