<svg width="120" height="36" fill="none" xmlns="http://www.w3.org/2000/svg"><path d="M58.144 22.027h8.832c.024.308.024.662.024.947C67 28.277 63.014 31 58.758 31 53.641 31 50 27.448 50 22.5c0-4.806 3.641-8.5 8.758-8.5 3.199 0 6.126 1.61 7.553 4.593l-2.017.616c-1.107-2.013-3.199-3.197-5.536-3.197-3.739 0-6.42 2.652-6.42 6.488 0 3.835 2.68 6.487 6.42 6.487 3.124 0 5.83-1.705 6.15-4.949h-6.765v-2.011ZM69 18.22h2.008v1.475C71.342 18.64 72.394 18 73.853 18c.406 0 .956.05 1.147.123v1.99c-.31-.122-.718-.172-1.124-.172-1.864 0-2.868 1.033-2.868 2.826V31H69V18.22ZM82.5 18c3.815 0 6.5 2.73 6.5 6.476C89 28.27 86.339 31 82.476 31 78.708 31 76 28.27 76 24.476 76 20.73 78.637 18 82.5 18Zm-.024 11.091c2.638 0 4.451-1.885 4.451-4.615 0-2.707-1.908-4.567-4.451-4.567-2.544 0-4.404 1.837-4.404 4.567 0 2.706 1.813 4.615 4.404 4.615ZM101.022 29.74c-.636 1.375-2.19 2.26-3.981 2.26C93.719 32 92 30.255 92 26.324V19h1.979v7.028c0 2.188.707 4.03 3.462 4.03 2.144 0 3.58-1.4 3.58-3.784V19H103v12.779h-1.979l.001-2.04ZM109.052 29.111v6.89H107V18.221h2.052v2.296c.856-1.506 2.469-2.518 4.815-2.518 3.47 0 6.133 2.494 6.133 6.544 0 4-2.59 6.74-6.304 6.74-2.297 0-3.74-.815-4.644-2.173Zm8.798-4.518c0-2.864-1.833-4.642-4.399-4.642-2.688 0-4.399 1.704-4.399 4.494v.47c0 2.987 2.005 4.419 4.472 4.419 2.591 0 4.326-1.852 4.326-4.741ZM28.942 31l-3.44-5.853L22.133 31H18.1l5.181-8.815L18 14h4.214l3.383 5.465L28.824 14h4.034l-5.197 8.452L33 31h-4.058ZM47 25.03c0 3.678-2.868 5.97-6.626 5.97-3.313 0-6.102-1.767-6.374-5.611h3.585c.247 1.671 1.632 2.388 3.14 2.388 1.88 0 2.69-1.218 2.69-2.794 0-1.647-1.26-2.674-3.016-2.674-1.459 0-2.423.669-2.868 1.385h-3.427L35.288 14h11.27l-.375 3.248H38.12l-.32 3.207s.847-.963 3.413-.963C44.305 19.491 47 21.495 47 25.031Z" fill="#676869"/><path d="M34.99 12.261C33.117 5.06 27.183.001 14.868.001H0l2.019 13.478c1.518 12.163 6.228 16.076 14.563 17.517.039.006.303.043.306-.262a.267.267 0 0 0-.165-.246c-5.634-2.343-6.277-10.026-7.48-17.735L8.31 6.609h8.488c7.826 0 13.868-.122 17.693 5.844a.307.307 0 0 0 .25.146.258.258 0 0 0 .258-.264.246.246 0 0 0-.01-.074Z" fill="#676869"/></svg>